<mxfile host="app.diagrams.net" modified="2024-03-05T13:22:12.909Z" agent="Mozilla/5.0 (Windows NT 10.0; Win64; x64) AppleWebKit/537.36 (KHTML, like Gecko) Chrome/120.0.0.0 YaBrowser/24.1.0.0 Safari/537.36" etag="azx1RWCGaZvXQ_9G5jhg" version="24.0.1" type="google">
  <diagram id="C5RBs43oDa-KdzZeNtuy" name="Page-1">
    <mxGraphModel grid="1" page="1" gridSize="10" guides="1" tooltips="1" connect="1" arrows="1" fold="1" pageScale="1" pageWidth="827" pageHeight="1169" math="0" shadow="0">
      <root>
        <mxCell id="WIyWlLk6GJQsqaUBKTNV-0" />
        <mxCell id="WIyWlLk6GJQsqaUBKTNV-1" parent="WIyWlLk6GJQsqaUBKTNV-0" />
        <mxCell id="zkfFHV4jXpPFQw0GAbJ--0" value="BaseUser" style="swimlane;fontStyle=0;align=center;verticalAlign=top;childLayout=stackLayout;horizontal=1;startSize=26;horizontalStack=0;resizeParent=1;resizeLast=0;collapsible=1;marginBottom=0;rounded=0;shadow=0;strokeWidth=1;" vertex="1" parent="WIyWlLk6GJQsqaUBKTNV-1">
          <mxGeometry x="-50" y="130" width="240" height="210" as="geometry">
            <mxRectangle x="230" y="140" width="160" height="26" as="alternateBounds" />
          </mxGeometry>
        </mxCell>
        <mxCell id="yGF6t645OCMySrIcv2uI-0" value="&lt;div&gt;&amp;nbsp;- id: string&lt;/div&gt;" style="text;html=1;align=left;verticalAlign=middle;resizable=0;points=[];autosize=1;strokeColor=none;fillColor=none;" vertex="1" parent="zkfFHV4jXpPFQw0GAbJ--0">
          <mxGeometry y="26" width="240" height="30" as="geometry" />
        </mxCell>
        <mxCell id="yGF6t645OCMySrIcv2uI-2" value="&lt;div style=&quot;color: rgb(0, 0, 0); font-family: Helvetica; font-size: 12px; font-style: normal; font-variant-ligatures: normal; font-variant-caps: normal; font-weight: 400; letter-spacing: normal; orphans: 2; text-indent: 0px; text-transform: none; widows: 2; word-spacing: 0px; -webkit-text-stroke-width: 0px; white-space: nowrap; background-color: rgb(251, 251, 251); text-decoration-thickness: initial; text-decoration-style: initial; text-decoration-color: initial;&quot;&gt;- username: string&lt;/div&gt;" style="text;html=1;align=left;verticalAlign=middle;resizable=0;points=[];autosize=1;strokeColor=none;fillColor=none;" vertex="1" parent="zkfFHV4jXpPFQw0GAbJ--0">
          <mxGeometry y="56" width="240" height="30" as="geometry" />
        </mxCell>
        <mxCell id="yGF6t645OCMySrIcv2uI-6" value="&lt;div style=&quot;&quot;&gt;- email: string&lt;/div&gt;" style="text;html=1;align=left;verticalAlign=middle;resizable=0;points=[];autosize=1;strokeColor=none;fillColor=none;" vertex="1" parent="zkfFHV4jXpPFQw0GAbJ--0">
          <mxGeometry y="86" width="240" height="30" as="geometry" />
        </mxCell>
        <mxCell id="yGF6t645OCMySrIcv2uI-7" value="&lt;div&gt;- password: string&lt;/div&gt;" style="text;html=1;align=left;verticalAlign=middle;resizable=0;points=[];autosize=1;strokeColor=none;fillColor=none;" vertex="1" parent="zkfFHV4jXpPFQw0GAbJ--0">
          <mxGeometry y="116" width="240" height="30" as="geometry" />
        </mxCell>
        <mxCell id="yGF6t645OCMySrIcv2uI-9" value="&lt;div&gt;&amp;nbsp;- registrationDate: Date&lt;span style=&quot;background-color: initial;&quot;&gt;&amp;nbsp;&amp;nbsp;&lt;/span&gt;&lt;/div&gt;" style="text;html=1;align=left;verticalAlign=middle;resizable=0;points=[];autosize=1;strokeColor=none;fillColor=none;" vertex="1" parent="zkfFHV4jXpPFQw0GAbJ--0">
          <mxGeometry y="146" width="240" height="30" as="geometry" />
        </mxCell>
        <mxCell id="yGF6t645OCMySrIcv2uI-10" value="- lastLoginDate: Date" style="text;html=1;align=left;verticalAlign=middle;resizable=0;points=[];autosize=1;strokeColor=none;fillColor=none;" vertex="1" parent="zkfFHV4jXpPFQw0GAbJ--0">
          <mxGeometry y="176" width="240" height="30" as="geometry" />
        </mxCell>
        <mxCell id="yGF6t645OCMySrIcv2uI-12" value="User" style="swimlane;whiteSpace=wrap;html=1;" vertex="1" parent="WIyWlLk6GJQsqaUBKTNV-1">
          <mxGeometry x="-60" y="410" width="240" height="150" as="geometry" />
        </mxCell>
        <mxCell id="yGF6t645OCMySrIcv2uI-14" value="&lt;div&gt;- phoneNumber:&lt;span style=&quot;background-color: initial;&quot;&gt;&amp;nbsp; string&lt;/span&gt;&lt;/div&gt;" style="text;html=1;align=center;verticalAlign=middle;resizable=0;points=[];autosize=1;strokeColor=none;fillColor=none;" vertex="1" parent="yGF6t645OCMySrIcv2uI-12">
          <mxGeometry x="-10" y="20" width="150" height="30" as="geometry" />
        </mxCell>
        <mxCell id="yGF6t645OCMySrIcv2uI-15" value="&lt;div&gt;&lt;span style=&quot;background-color: initial;&quot;&gt;- address: string&lt;/span&gt;&lt;br&gt;&lt;/div&gt;" style="text;html=1;align=center;verticalAlign=middle;resizable=0;points=[];autosize=1;strokeColor=none;fillColor=none;" vertex="1" parent="yGF6t645OCMySrIcv2uI-12">
          <mxGeometry x="-10" y="50" width="110" height="30" as="geometry" />
        </mxCell>
        <mxCell id="yGF6t645OCMySrIcv2uI-17" value="&lt;div&gt;- dateOfBirth: Date&amp;nbsp;&lt;/div&gt;" style="text;html=1;align=center;verticalAlign=middle;resizable=0;points=[];autosize=1;strokeColor=none;fillColor=none;" vertex="1" parent="yGF6t645OCMySrIcv2uI-12">
          <mxGeometry x="-10" y="80" width="130" height="30" as="geometry" />
        </mxCell>
        <mxCell id="yGF6t645OCMySrIcv2uI-18" value="&lt;div&gt;&lt;span style=&quot;background-color: initial;&quot;&gt;- isActive: bool&lt;/span&gt;&lt;/div&gt;" style="text;html=1;align=center;verticalAlign=middle;resizable=0;points=[];autosize=1;strokeColor=none;fillColor=none;" vertex="1" parent="yGF6t645OCMySrIcv2uI-12">
          <mxGeometry x="-5" y="110" width="100" height="30" as="geometry" />
        </mxCell>
        <mxCell id="yGF6t645OCMySrIcv2uI-13" value="" style="endArrow=classic;html=1;rounded=0;entryX=0.5;entryY=1;entryDx=0;entryDy=0;exitX=0.526;exitY=0;exitDx=0;exitDy=0;exitPerimeter=0;" edge="1" parent="WIyWlLk6GJQsqaUBKTNV-1" source="yGF6t645OCMySrIcv2uI-12" target="zkfFHV4jXpPFQw0GAbJ--0">
          <mxGeometry width="50" height="50" relative="1" as="geometry">
            <mxPoint x="500" y="380" as="sourcePoint" />
            <mxPoint x="550" y="330" as="targetPoint" />
            <Array as="points" />
          </mxGeometry>
        </mxCell>
        <mxCell id="yGF6t645OCMySrIcv2uI-19" value="inherits" style="edgeLabel;html=1;align=center;verticalAlign=middle;resizable=0;points=[];" connectable="0" vertex="1" parent="yGF6t645OCMySrIcv2uI-13">
          <mxGeometry x="-0.2013" y="-1" relative="1" as="geometry">
            <mxPoint as="offset" />
          </mxGeometry>
        </mxCell>
        <mxCell id="yGF6t645OCMySrIcv2uI-22" style="edgeStyle=orthogonalEdgeStyle;rounded=0;orthogonalLoop=1;jettySize=auto;html=1;entryX=0.5;entryY=1;entryDx=0;entryDy=0;" edge="1" parent="WIyWlLk6GJQsqaUBKTNV-1" source="yGF6t645OCMySrIcv2uI-20" target="yGF6t645OCMySrIcv2uI-12">
          <mxGeometry relative="1" as="geometry">
            <mxPoint x="180" y="570" as="targetPoint" />
            <Array as="points">
              <mxPoint x="100" y="630" />
              <mxPoint x="60" y="630" />
            </Array>
          </mxGeometry>
        </mxCell>
        <mxCell id="yGF6t645OCMySrIcv2uI-30" value="inherits" style="edgeLabel;html=1;align=center;verticalAlign=middle;resizable=0;points=[];" connectable="0" vertex="1" parent="yGF6t645OCMySrIcv2uI-22">
          <mxGeometry x="-0.2799" y="-1" relative="1" as="geometry">
            <mxPoint as="offset" />
          </mxGeometry>
        </mxCell>
        <mxCell id="yGF6t645OCMySrIcv2uI-20" value="Client" style="swimlane;whiteSpace=wrap;html=1;" vertex="1" parent="WIyWlLk6GJQsqaUBKTNV-1">
          <mxGeometry x="30" y="660" width="250" height="70" as="geometry" />
        </mxCell>
        <mxCell id="yGF6t645OCMySrIcv2uI-24" value="- NumberOfBookings: int" style="text;html=1;align=center;verticalAlign=middle;resizable=0;points=[];autosize=1;strokeColor=none;fillColor=none;" vertex="1" parent="yGF6t645OCMySrIcv2uI-20">
          <mxGeometry y="30" width="150" height="30" as="geometry" />
        </mxCell>
        <mxCell id="yGF6t645OCMySrIcv2uI-23" style="edgeStyle=orthogonalEdgeStyle;rounded=0;orthogonalLoop=1;jettySize=auto;html=1;exitX=0.5;exitY=0;exitDx=0;exitDy=0;entryX=0.75;entryY=1;entryDx=0;entryDy=0;" edge="1" parent="WIyWlLk6GJQsqaUBKTNV-1" source="yGF6t645OCMySrIcv2uI-21" target="yGF6t645OCMySrIcv2uI-12">
          <mxGeometry relative="1" as="geometry">
            <mxPoint x="240" y="570" as="targetPoint" />
          </mxGeometry>
        </mxCell>
        <mxCell id="yGF6t645OCMySrIcv2uI-29" value="inherits" style="edgeLabel;html=1;align=center;verticalAlign=middle;resizable=0;points=[];" connectable="0" vertex="1" parent="yGF6t645OCMySrIcv2uI-23">
          <mxGeometry x="-0.3573" y="1" relative="1" as="geometry">
            <mxPoint as="offset" />
          </mxGeometry>
        </mxCell>
        <mxCell id="yGF6t645OCMySrIcv2uI-21" value="Sta&lt;span style=&quot;background-color: initial;&quot;&gt;ff&lt;/span&gt;" style="swimlane;whiteSpace=wrap;html=1;" vertex="1" parent="WIyWlLk6GJQsqaUBKTNV-1">
          <mxGeometry x="310" y="660" width="200" height="110" as="geometry" />
        </mxCell>
        <mxCell id="yGF6t645OCMySrIcv2uI-27" value="- Position: string" style="text;html=1;align=center;verticalAlign=middle;resizable=0;points=[];autosize=1;strokeColor=none;fillColor=none;" vertex="1" parent="yGF6t645OCMySrIcv2uI-21">
          <mxGeometry y="28" width="110" height="30" as="geometry" />
        </mxCell>
        <mxCell id="yGF6t645OCMySrIcv2uI-28" value="- NumberOfAds : int" style="text;html=1;align=center;verticalAlign=middle;resizable=0;points=[];autosize=1;strokeColor=none;fillColor=none;" vertex="1" parent="yGF6t645OCMySrIcv2uI-21">
          <mxGeometry y="50" width="130" height="30" as="geometry" />
        </mxCell>
        <mxCell id="yGF6t645OCMySrIcv2uI-50" value="use" style="html=1;verticalAlign=bottom;labelBackgroundColor=none;endArrow=open;endFill=0;dashed=1;rounded=0;exitX=0.004;exitY=1.124;exitDx=0;exitDy=0;entryX=0.998;entryY=0.071;entryDx=0;entryDy=0;entryPerimeter=0;exitPerimeter=0;" edge="1" parent="WIyWlLk6GJQsqaUBKTNV-1" source="Llu71SaY1VRgX1Pa0Iaw-72" target="Llu71SaY1VRgX1Pa0Iaw-44">
          <mxGeometry width="160" relative="1" as="geometry">
            <mxPoint x="770" y="320.0000000000001" as="sourcePoint" />
            <mxPoint x="630" y="500" as="targetPoint" />
            <Array as="points">
              <mxPoint x="690" y="327" />
              <mxPoint x="690" y="430" />
            </Array>
          </mxGeometry>
        </mxCell>
        <mxCell id="yGF6t645OCMySrIcv2uI-51" value="&quot;interface&quot;&lt;div&gt;IBaseAuthService&lt;/div&gt;" style="rounded=0;whiteSpace=wrap;html=1;" vertex="1" parent="WIyWlLk6GJQsqaUBKTNV-1">
          <mxGeometry x="820" y="100" width="220" height="60" as="geometry" />
        </mxCell>
        <mxCell id="oP3yjI9n-bNLV6D8Z_aS-1" value="AccountController" style="swimlane;whiteSpace=wrap;html=1;" vertex="1" parent="WIyWlLk6GJQsqaUBKTNV-1">
          <mxGeometry x="790" y="540" width="260" height="110" as="geometry" />
        </mxCell>
        <mxCell id="oP3yjI9n-bNLV6D8Z_aS-2" value="&lt;div&gt;- authService: AuthService&lt;/div&gt;&lt;div&gt;&amp;nbsp; &amp;nbsp; &amp;nbsp; &amp;nbsp;&lt;br&gt;&lt;/div&gt;" style="text;html=1;align=left;verticalAlign=middle;resizable=0;points=[];autosize=1;strokeColor=none;fillColor=none;" vertex="1" parent="oP3yjI9n-bNLV6D8Z_aS-1">
          <mxGeometry y="30" width="160" height="40" as="geometry" />
        </mxCell>
        <mxCell id="oP3yjI9n-bNLV6D8Z_aS-5" value="&lt;div&gt;+ register(email: string, password: string): void&lt;/div&gt;&lt;div&gt;+ login(email: string, password: string): string&lt;/div&gt;&lt;div&gt;+ logout(token: string): void&lt;/div&gt;" style="whiteSpace=wrap;html=1;align=left;" vertex="1" parent="oP3yjI9n-bNLV6D8Z_aS-1">
          <mxGeometry y="60" width="260" height="50" as="geometry" />
        </mxCell>
        <mxCell id="oP3yjI9n-bNLV6D8Z_aS-4" value="use" style="html=1;verticalAlign=bottom;labelBackgroundColor=none;endArrow=open;endFill=0;dashed=1;rounded=0;exitX=0.5;exitY=0;exitDx=0;exitDy=0;entryX=0.426;entryY=1.088;entryDx=0;entryDy=0;entryPerimeter=0;" edge="1" parent="WIyWlLk6GJQsqaUBKTNV-1" source="oP3yjI9n-bNLV6D8Z_aS-1" target="Llu71SaY1VRgX1Pa0Iaw-76">
          <mxGeometry width="160" relative="1" as="geometry">
            <mxPoint x="970" y="450" as="sourcePoint" />
            <mxPoint x="915.0000000000005" y="400" as="targetPoint" />
          </mxGeometry>
        </mxCell>
        <mxCell id="oP3yjI9n-bNLV6D8Z_aS-6" value="&quot;interface&quot;&lt;div&gt;IBaseRepository&lt;/div&gt;" style="rounded=0;whiteSpace=wrap;html=1;" vertex="1" parent="WIyWlLk6GJQsqaUBKTNV-1">
          <mxGeometry x="110" y="840" width="220" height="60" as="geometry" />
        </mxCell>
        <mxCell id="oP3yjI9n-bNLV6D8Z_aS-16" value="CarRankingService" style="swimlane;whiteSpace=wrap;html=1;" vertex="1" parent="WIyWlLk6GJQsqaUBKTNV-1">
          <mxGeometry x="660" y="690" width="205" height="110" as="geometry" />
        </mxCell>
        <mxCell id="oP3yjI9n-bNLV6D8Z_aS-17" value="+ generateListOfCar(car: Car): float" style="text;html=1;align=center;verticalAlign=middle;resizable=0;points=[];autosize=1;strokeColor=none;fillColor=none;" vertex="1" parent="oP3yjI9n-bNLV6D8Z_aS-16">
          <mxGeometry x="-5" y="30" width="210" height="30" as="geometry" />
        </mxCell>
        <mxCell id="oP3yjI9n-bNLV6D8Z_aS-19" value="use" style="html=1;verticalAlign=bottom;labelBackgroundColor=none;endArrow=open;endFill=0;dashed=1;rounded=0;exitX=0.25;exitY=0;exitDx=0;exitDy=0;entryX=1;entryY=0.5;entryDx=0;entryDy=0;" edge="1" parent="WIyWlLk6GJQsqaUBKTNV-1" source="oP3yjI9n-bNLV6D8Z_aS-16" target="Llu71SaY1VRgX1Pa0Iaw-46">
          <mxGeometry width="160" relative="1" as="geometry">
            <mxPoint x="865" y="780" as="sourcePoint" />
            <mxPoint x="541.4224137931033" y="590" as="targetPoint" />
            <Array as="points">
              <mxPoint x="711" y="485" />
            </Array>
          </mxGeometry>
        </mxCell>
        <mxCell id="oP3yjI9n-bNLV6D8Z_aS-20" value="use" style="html=1;verticalAlign=bottom;labelBackgroundColor=none;endArrow=open;endFill=0;dashed=1;rounded=0;exitX=0;exitY=0.75;exitDx=0;exitDy=0;entryX=0.802;entryY=-0.01;entryDx=0;entryDy=0;entryPerimeter=0;" edge="1" parent="WIyWlLk6GJQsqaUBKTNV-1" source="oP3yjI9n-bNLV6D8Z_aS-16" target="Llu71SaY1VRgX1Pa0Iaw-38">
          <mxGeometry width="160" relative="1" as="geometry">
            <mxPoint x="820" y="880" as="sourcePoint" />
            <mxPoint x="623.0799999999999" y="824.45" as="targetPoint" />
            <Array as="points">
              <mxPoint x="579" y="773" />
            </Array>
          </mxGeometry>
        </mxCell>
        <mxCell id="oP3yjI9n-bNLV6D8Z_aS-27" value="" style="endArrow=classic;startArrow=classic;html=1;rounded=0;entryX=-0.006;entryY=0.141;entryDx=0;entryDy=0;exitX=1;exitY=0.5;exitDx=0;exitDy=0;entryPerimeter=0;" edge="1" parent="WIyWlLk6GJQsqaUBKTNV-1" source="Llu71SaY1VRgX1Pa0Iaw-41" target="Llu71SaY1VRgX1Pa0Iaw-63">
          <mxGeometry width="50" height="50" relative="1" as="geometry">
            <mxPoint x="621.0999999999999" y="879.808" as="sourcePoint" />
            <mxPoint x="701.2000000000003" y="901.72" as="targetPoint" />
            <Array as="points">
              <mxPoint x="650" y="903" />
              <mxPoint x="650" y="860" />
            </Array>
          </mxGeometry>
        </mxCell>
        <mxCell id="oP3yjI9n-bNLV6D8Z_aS-30" value="use" style="html=1;verticalAlign=bottom;labelBackgroundColor=none;endArrow=open;endFill=0;dashed=1;rounded=0;exitX=0.998;exitY=0.07;exitDx=0;exitDy=0;exitPerimeter=0;entryX=-0.007;entryY=0.056;entryDx=0;entryDy=0;entryPerimeter=0;" edge="1" parent="WIyWlLk6GJQsqaUBKTNV-1" source="Llu71SaY1VRgX1Pa0Iaw-49" target="Llu71SaY1VRgX1Pa0Iaw-17">
          <mxGeometry width="160" relative="1" as="geometry">
            <mxPoint x="110" y="1060" as="sourcePoint" />
            <mxPoint x="170" y="1058" as="targetPoint" />
          </mxGeometry>
        </mxCell>
        <mxCell id="oP3yjI9n-bNLV6D8Z_aS-35" value="CarController" style="swimlane;whiteSpace=wrap;html=1;" vertex="1" parent="WIyWlLk6GJQsqaUBKTNV-1">
          <mxGeometry x="930" y="760" width="240" height="70" as="geometry" />
        </mxCell>
        <mxCell id="oP3yjI9n-bNLV6D8Z_aS-36" value="&lt;div&gt;+ getAllCars(): List&amp;lt;Car&amp;gt;&lt;/div&gt;&lt;div&gt;+ getCarById(carId: string): Car&lt;/div&gt;" style="text;html=1;align=left;verticalAlign=middle;resizable=0;points=[];autosize=1;strokeColor=none;fillColor=none;" vertex="1" parent="oP3yjI9n-bNLV6D8Z_aS-35">
          <mxGeometry y="30" width="190" height="40" as="geometry" />
        </mxCell>
        <mxCell id="oP3yjI9n-bNLV6D8Z_aS-37" value="use" style="html=1;verticalAlign=bottom;labelBackgroundColor=none;endArrow=open;endFill=0;dashed=1;rounded=0;exitX=0;exitY=0.25;exitDx=0;exitDy=0;entryX=1;entryY=0.75;entryDx=0;entryDy=0;" edge="1" parent="WIyWlLk6GJQsqaUBKTNV-1" source="oP3yjI9n-bNLV6D8Z_aS-35" target="oP3yjI9n-bNLV6D8Z_aS-16">
          <mxGeometry width="160" relative="1" as="geometry">
            <mxPoint x="1072" y="820" as="sourcePoint" />
            <mxPoint x="915" y="700" as="targetPoint" />
          </mxGeometry>
        </mxCell>
        <mxCell id="oP3yjI9n-bNLV6D8Z_aS-41" value="use" style="html=1;verticalAlign=bottom;labelBackgroundColor=none;endArrow=open;endFill=0;dashed=1;rounded=0;exitX=0.5;exitY=1;exitDx=0;exitDy=0;entryX=0.5;entryY=0;entryDx=0;entryDy=0;" edge="1" parent="WIyWlLk6GJQsqaUBKTNV-1" source="Llu71SaY1VRgX1Pa0Iaw-62" target="Llu71SaY1VRgX1Pa0Iaw-49">
          <mxGeometry width="160" relative="1" as="geometry">
            <mxPoint x="-188.5" y="930" as="sourcePoint" />
            <mxPoint x="-190" y="978.24" as="targetPoint" />
          </mxGeometry>
        </mxCell>
        <mxCell id="Llu71SaY1VRgX1Pa0Iaw-0" value="" style="endArrow=block;dashed=1;endFill=0;endSize=12;html=1;rounded=0;entryX=0.47;entryY=1.011;entryDx=0;entryDy=0;exitX=0.433;exitY=-0.02;exitDx=0;exitDy=0;exitPerimeter=0;entryPerimeter=0;" edge="1" parent="WIyWlLk6GJQsqaUBKTNV-1" source="Llu71SaY1VRgX1Pa0Iaw-68" target="yGF6t645OCMySrIcv2uI-51">
          <mxGeometry width="160" relative="1" as="geometry">
            <mxPoint x="915.0000000000005" y="240" as="sourcePoint" />
            <mxPoint x="760" y="160" as="targetPoint" />
          </mxGeometry>
        </mxCell>
        <mxCell id="Llu71SaY1VRgX1Pa0Iaw-1" value="" style="endArrow=block;dashed=1;endFill=0;endSize=12;html=1;rounded=0;entryX=1;entryY=0;entryDx=0;entryDy=0;exitX=0.023;exitY=-0.005;exitDx=0;exitDy=0;exitPerimeter=0;" edge="1" parent="WIyWlLk6GJQsqaUBKTNV-1" source="Llu71SaY1VRgX1Pa0Iaw-38" target="oP3yjI9n-bNLV6D8Z_aS-6">
          <mxGeometry width="160" relative="1" as="geometry">
            <mxPoint x="420" y="810" as="sourcePoint" />
            <mxPoint x="330" y="899.74" as="targetPoint" />
            <Array as="points">
              <mxPoint x="330" y="810" />
            </Array>
          </mxGeometry>
        </mxCell>
        <mxCell id="Llu71SaY1VRgX1Pa0Iaw-2" value="" style="endArrow=block;dashed=1;endFill=0;endSize=12;html=1;rounded=0;entryX=0.683;entryY=0.997;entryDx=0;entryDy=0;entryPerimeter=0;exitX=0.475;exitY=-0.01;exitDx=0;exitDy=0;exitPerimeter=0;" edge="1" parent="WIyWlLk6GJQsqaUBKTNV-1" source="Llu71SaY1VRgX1Pa0Iaw-17" target="oP3yjI9n-bNLV6D8Z_aS-6">
          <mxGeometry width="160" relative="1" as="geometry">
            <mxPoint x="285.9000000000001" y="1010" as="sourcePoint" />
            <mxPoint x="370" y="950" as="targetPoint" />
            <Array as="points">
              <mxPoint x="354" y="950" />
              <mxPoint x="260" y="950" />
            </Array>
          </mxGeometry>
        </mxCell>
        <mxCell id="Llu71SaY1VRgX1Pa0Iaw-3" value="use" style="html=1;verticalAlign=bottom;labelBackgroundColor=none;endArrow=open;endFill=0;dashed=1;rounded=0;exitX=0;exitY=0.5;exitDx=0;exitDy=0;entryX=1;entryY=0.5;entryDx=0;entryDy=0;" edge="1" parent="WIyWlLk6GJQsqaUBKTNV-1" source="Llu71SaY1VRgX1Pa0Iaw-46" target="yGF6t645OCMySrIcv2uI-12">
          <mxGeometry width="160" relative="1" as="geometry">
            <mxPoint x="299.9999999999998" y="500" as="sourcePoint" />
            <mxPoint x="340" y="510" as="targetPoint" />
          </mxGeometry>
        </mxCell>
        <mxCell id="Llu71SaY1VRgX1Pa0Iaw-4" value="use" style="html=1;verticalAlign=bottom;labelBackgroundColor=none;endArrow=open;endFill=0;dashed=1;rounded=0;exitX=0.471;exitY=0.013;exitDx=0;exitDy=0;entryX=-0.002;entryY=0.104;entryDx=0;entryDy=0;entryPerimeter=0;exitPerimeter=0;" edge="1" parent="WIyWlLk6GJQsqaUBKTNV-1" source="Llu71SaY1VRgX1Pa0Iaw-58" target="Llu71SaY1VRgX1Pa0Iaw-44">
          <mxGeometry width="160" relative="1" as="geometry">
            <mxPoint x="-111.55000000000018" y="801.69" as="sourcePoint" />
            <mxPoint x="301.98" y="443.7599999999999" as="targetPoint" />
            <Array as="points">
              <mxPoint x="-190" y="650" />
              <mxPoint x="210" y="650" />
              <mxPoint x="210" y="440" />
            </Array>
          </mxGeometry>
        </mxCell>
        <mxCell id="Llu71SaY1VRgX1Pa0Iaw-6" value="use&lt;div&gt;&lt;br&gt;&lt;/div&gt;" style="edgeLabel;html=1;align=center;verticalAlign=middle;resizable=0;points=[];" connectable="0" vertex="1" parent="Llu71SaY1VRgX1Pa0Iaw-4">
          <mxGeometry x="-0.7552" y="1" relative="1" as="geometry">
            <mxPoint as="offset" />
          </mxGeometry>
        </mxCell>
        <mxCell id="Llu71SaY1VRgX1Pa0Iaw-15" value="&lt;div style=&quot;text-align: left; text-wrap: wrap;&quot;&gt;&lt;br&gt;&lt;/div&gt;" style="text;html=1;align=center;verticalAlign=middle;resizable=0;points=[];autosize=1;strokeColor=none;fillColor=none;" vertex="1" parent="WIyWlLk6GJQsqaUBKTNV-1">
          <mxGeometry x="180" y="1285" width="20" height="30" as="geometry" />
        </mxCell>
        <mxCell id="Llu71SaY1VRgX1Pa0Iaw-17" value="&lt;span style=&quot;font-weight: 700;&quot;&gt;BookingRepository&lt;/span&gt;" style="swimlane;fontStyle=0;childLayout=stackLayout;horizontal=1;startSize=26;fillColor=none;horizontalStack=0;resizeParent=1;resizeParentMax=0;resizeLast=0;collapsible=1;marginBottom=0;whiteSpace=wrap;html=1;" vertex="1" parent="WIyWlLk6GJQsqaUBKTNV-1">
          <mxGeometry x="140" y="980" width="450" height="182" as="geometry" />
        </mxCell>
        <mxCell id="Llu71SaY1VRgX1Pa0Iaw-18" value="+ add(booking: Booking): void" style="text;strokeColor=none;fillColor=none;align=left;verticalAlign=top;spacingLeft=4;spacingRight=4;overflow=hidden;rotatable=0;points=[[0,0.5],[1,0.5]];portConstraint=eastwest;whiteSpace=wrap;html=1;" vertex="1" parent="Llu71SaY1VRgX1Pa0Iaw-17">
          <mxGeometry y="26" width="450" height="26" as="geometry" />
        </mxCell>
        <mxCell id="Llu71SaY1VRgX1Pa0Iaw-19" value="+ remove(booking: Booking): void" style="text;strokeColor=none;fillColor=none;align=left;verticalAlign=top;spacingLeft=4;spacingRight=4;overflow=hidden;rotatable=0;points=[[0,0.5],[1,0.5]];portConstraint=eastwest;whiteSpace=wrap;html=1;" vertex="1" parent="Llu71SaY1VRgX1Pa0Iaw-17">
          <mxGeometry y="52" width="450" height="26" as="geometry" />
        </mxCell>
        <mxCell id="Llu71SaY1VRgX1Pa0Iaw-20" value="+ update(booking: Booking): void" style="text;strokeColor=none;fillColor=none;align=left;verticalAlign=top;spacingLeft=4;spacingRight=4;overflow=hidden;rotatable=0;points=[[0,0.5],[1,0.5]];portConstraint=eastwest;whiteSpace=wrap;html=1;" vertex="1" parent="Llu71SaY1VRgX1Pa0Iaw-17">
          <mxGeometry y="78" width="450" height="26" as="geometry" />
        </mxCell>
        <mxCell id="Llu71SaY1VRgX1Pa0Iaw-21" value="+ get(id: string): Booking" style="text;strokeColor=none;fillColor=none;align=left;verticalAlign=top;spacingLeft=4;spacingRight=4;overflow=hidden;rotatable=0;points=[[0,0.5],[1,0.5]];portConstraint=eastwest;whiteSpace=wrap;html=1;" vertex="1" parent="Llu71SaY1VRgX1Pa0Iaw-17">
          <mxGeometry y="104" width="450" height="26" as="geometry" />
        </mxCell>
        <mxCell id="Llu71SaY1VRgX1Pa0Iaw-22" value="+ getAll(): List&amp;lt;Booking&amp;gt;" style="text;strokeColor=none;fillColor=none;align=left;verticalAlign=top;spacingLeft=4;spacingRight=4;overflow=hidden;rotatable=0;points=[[0,0.5],[1,0.5]];portConstraint=eastwest;whiteSpace=wrap;html=1;" vertex="1" parent="Llu71SaY1VRgX1Pa0Iaw-17">
          <mxGeometry y="130" width="450" height="26" as="geometry" />
        </mxCell>
        <mxCell id="Llu71SaY1VRgX1Pa0Iaw-80" value="+ generateBookingHistory(&lt;span style=&quot;text-wrap: nowrap;&quot;&gt;userId: string, carId: string, bookingDate: Date): void&lt;/span&gt;" style="text;strokeColor=none;fillColor=none;align=left;verticalAlign=top;spacingLeft=4;spacingRight=4;overflow=hidden;rotatable=0;points=[[0,0.5],[1,0.5]];portConstraint=eastwest;whiteSpace=wrap;html=1;" vertex="1" parent="Llu71SaY1VRgX1Pa0Iaw-17">
          <mxGeometry y="156" width="450" height="26" as="geometry" />
        </mxCell>
        <mxCell id="Llu71SaY1VRgX1Pa0Iaw-23" value="&lt;span style=&quot;font-weight: 700;&quot;&gt;Booking&amp;nbsp;&lt;/span&gt;" style="swimlane;fontStyle=0;childLayout=stackLayout;horizontal=1;startSize=26;fillColor=none;horizontalStack=0;resizeParent=1;resizeParentMax=0;resizeLast=0;collapsible=1;marginBottom=0;whiteSpace=wrap;html=1;" vertex="1" parent="WIyWlLk6GJQsqaUBKTNV-1">
          <mxGeometry x="725" y="1011" width="210" height="182" as="geometry" />
        </mxCell>
        <mxCell id="Llu71SaY1VRgX1Pa0Iaw-24" value="&lt;span style=&quot;text-wrap: nowrap;&quot;&gt;- id: string&lt;/span&gt;" style="text;strokeColor=none;fillColor=none;align=left;verticalAlign=top;spacingLeft=4;spacingRight=4;overflow=hidden;rotatable=0;points=[[0,0.5],[1,0.5]];portConstraint=eastwest;whiteSpace=wrap;html=1;" vertex="1" parent="Llu71SaY1VRgX1Pa0Iaw-23">
          <mxGeometry y="26" width="210" height="26" as="geometry" />
        </mxCell>
        <mxCell id="Llu71SaY1VRgX1Pa0Iaw-25" value="&lt;span style=&quot;text-wrap: nowrap;&quot;&gt;- startDate: Date&lt;/span&gt;" style="text;strokeColor=none;fillColor=none;align=left;verticalAlign=top;spacingLeft=4;spacingRight=4;overflow=hidden;rotatable=0;points=[[0,0.5],[1,0.5]];portConstraint=eastwest;whiteSpace=wrap;html=1;" vertex="1" parent="Llu71SaY1VRgX1Pa0Iaw-23">
          <mxGeometry y="52" width="210" height="26" as="geometry" />
        </mxCell>
        <mxCell id="Llu71SaY1VRgX1Pa0Iaw-26" value="&lt;span style=&quot;text-wrap: nowrap;&quot;&gt;- endDate: Date&lt;/span&gt;" style="text;strokeColor=none;fillColor=none;align=left;verticalAlign=top;spacingLeft=4;spacingRight=4;overflow=hidden;rotatable=0;points=[[0,0.5],[1,0.5]];portConstraint=eastwest;whiteSpace=wrap;html=1;" vertex="1" parent="Llu71SaY1VRgX1Pa0Iaw-23">
          <mxGeometry y="78" width="210" height="26" as="geometry" />
        </mxCell>
        <mxCell id="Llu71SaY1VRgX1Pa0Iaw-27" value="&lt;span style=&quot;text-wrap: nowrap;&quot;&gt;- status: bool&lt;/span&gt;" style="text;strokeColor=none;fillColor=none;align=left;verticalAlign=top;spacingLeft=4;spacingRight=4;overflow=hidden;rotatable=0;points=[[0,0.5],[1,0.5]];portConstraint=eastwest;whiteSpace=wrap;html=1;" vertex="1" parent="Llu71SaY1VRgX1Pa0Iaw-23">
          <mxGeometry y="104" width="210" height="26" as="geometry" />
        </mxCell>
        <mxCell id="Llu71SaY1VRgX1Pa0Iaw-28" value="&lt;div&gt;&lt;div style=&quot;text-wrap: nowrap;&quot;&gt;- CarId: string&lt;/div&gt;&lt;/div&gt;&lt;div&gt;&lt;br&gt;&lt;/div&gt;" style="text;strokeColor=none;fillColor=none;align=left;verticalAlign=top;spacingLeft=4;spacingRight=4;overflow=hidden;rotatable=0;points=[[0,0.5],[1,0.5]];portConstraint=eastwest;whiteSpace=wrap;html=1;" vertex="1" parent="Llu71SaY1VRgX1Pa0Iaw-23">
          <mxGeometry y="130" width="210" height="26" as="geometry" />
        </mxCell>
        <mxCell id="Llu71SaY1VRgX1Pa0Iaw-29" value="&lt;div&gt;&lt;div style=&quot;text-wrap: nowrap;&quot;&gt;- UserId: string&lt;br&gt;&lt;/div&gt;&lt;/div&gt;" style="text;strokeColor=none;fillColor=none;align=left;verticalAlign=top;spacingLeft=4;spacingRight=4;overflow=hidden;rotatable=0;points=[[0,0.5],[1,0.5]];portConstraint=eastwest;whiteSpace=wrap;html=1;" vertex="1" parent="Llu71SaY1VRgX1Pa0Iaw-23">
          <mxGeometry y="156" width="210" height="26" as="geometry" />
        </mxCell>
        <mxCell id="Llu71SaY1VRgX1Pa0Iaw-38" value="&lt;span style=&quot;font-weight: 700;&quot;&gt;CarRepository&lt;/span&gt;" style="swimlane;fontStyle=0;childLayout=stackLayout;horizontal=1;startSize=26;fillColor=none;horizontalStack=0;resizeParent=1;resizeParentMax=0;resizeLast=0;collapsible=1;marginBottom=0;whiteSpace=wrap;html=1;" vertex="1" parent="WIyWlLk6GJQsqaUBKTNV-1">
          <mxGeometry x="422" y="812" width="196" height="156" as="geometry" />
        </mxCell>
        <mxCell id="Llu71SaY1VRgX1Pa0Iaw-39" value="+ add(car: Car): void" style="text;strokeColor=none;fillColor=none;align=left;verticalAlign=top;spacingLeft=4;spacingRight=4;overflow=hidden;rotatable=0;points=[[0,0.5],[1,0.5]];portConstraint=eastwest;whiteSpace=wrap;html=1;" vertex="1" parent="Llu71SaY1VRgX1Pa0Iaw-38">
          <mxGeometry y="26" width="196" height="26" as="geometry" />
        </mxCell>
        <mxCell id="Llu71SaY1VRgX1Pa0Iaw-40" value="+ remove(car: Car): void" style="text;strokeColor=none;fillColor=none;align=left;verticalAlign=top;spacingLeft=4;spacingRight=4;overflow=hidden;rotatable=0;points=[[0,0.5],[1,0.5]];portConstraint=eastwest;whiteSpace=wrap;html=1;" vertex="1" parent="Llu71SaY1VRgX1Pa0Iaw-38">
          <mxGeometry y="52" width="196" height="26" as="geometry" />
        </mxCell>
        <mxCell id="Llu71SaY1VRgX1Pa0Iaw-41" value="+ update(car: Car): void" style="text;strokeColor=none;fillColor=none;align=left;verticalAlign=top;spacingLeft=4;spacingRight=4;overflow=hidden;rotatable=0;points=[[0,0.5],[1,0.5]];portConstraint=eastwest;whiteSpace=wrap;html=1;" vertex="1" parent="Llu71SaY1VRgX1Pa0Iaw-38">
          <mxGeometry y="78" width="196" height="26" as="geometry" />
        </mxCell>
        <mxCell id="Llu71SaY1VRgX1Pa0Iaw-42" value="+ get(id: string): Car" style="text;strokeColor=none;fillColor=none;align=left;verticalAlign=top;spacingLeft=4;spacingRight=4;overflow=hidden;rotatable=0;points=[[0,0.5],[1,0.5]];portConstraint=eastwest;whiteSpace=wrap;html=1;" vertex="1" parent="Llu71SaY1VRgX1Pa0Iaw-38">
          <mxGeometry y="104" width="196" height="26" as="geometry" />
        </mxCell>
        <mxCell id="Llu71SaY1VRgX1Pa0Iaw-43" value="+ getAll(): List&amp;lt;Car&amp;gt;" style="text;strokeColor=none;fillColor=none;align=left;verticalAlign=top;spacingLeft=4;spacingRight=4;overflow=hidden;rotatable=0;points=[[0,0.5],[1,0.5]];portConstraint=eastwest;whiteSpace=wrap;html=1;" vertex="1" parent="Llu71SaY1VRgX1Pa0Iaw-38">
          <mxGeometry y="130" width="196" height="26" as="geometry" />
        </mxCell>
        <mxCell id="Llu71SaY1VRgX1Pa0Iaw-44" value="&lt;span style=&quot;font-weight: 700;&quot;&gt;UserManager&lt;/span&gt;" style="swimlane;fontStyle=0;childLayout=stackLayout;horizontal=1;startSize=26;fillColor=none;horizontalStack=0;resizeParent=1;resizeParentMax=0;resizeLast=0;collapsible=1;marginBottom=0;whiteSpace=wrap;html=1;" vertex="1" parent="WIyWlLk6GJQsqaUBKTNV-1">
          <mxGeometry x="298" y="420" width="320" height="130" as="geometry" />
        </mxCell>
        <mxCell id="Llu71SaY1VRgX1Pa0Iaw-45" value="+ add_user(user: User): void" style="text;strokeColor=none;fillColor=none;align=left;verticalAlign=top;spacingLeft=4;spacingRight=4;overflow=hidden;rotatable=0;points=[[0,0.5],[1,0.5]];portConstraint=eastwest;whiteSpace=wrap;html=1;" vertex="1" parent="Llu71SaY1VRgX1Pa0Iaw-44">
          <mxGeometry y="26" width="320" height="26" as="geometry" />
        </mxCell>
        <mxCell id="Llu71SaY1VRgX1Pa0Iaw-46" value="&lt;div&gt;+ remove_user(user: User): void&lt;/div&gt;&lt;div&gt;&lt;br&gt;&lt;/div&gt;" style="text;strokeColor=none;fillColor=none;align=left;verticalAlign=top;spacingLeft=4;spacingRight=4;overflow=hidden;rotatable=0;points=[[0,0.5],[1,0.5]];portConstraint=eastwest;whiteSpace=wrap;html=1;" vertex="1" parent="Llu71SaY1VRgX1Pa0Iaw-44">
          <mxGeometry y="52" width="320" height="26" as="geometry" />
        </mxCell>
        <mxCell id="Llu71SaY1VRgX1Pa0Iaw-47" value="+ find_user_by_email(email: string): User" style="text;strokeColor=none;fillColor=none;align=left;verticalAlign=top;spacingLeft=4;spacingRight=4;overflow=hidden;rotatable=0;points=[[0,0.5],[1,0.5]];portConstraint=eastwest;whiteSpace=wrap;html=1;" vertex="1" parent="Llu71SaY1VRgX1Pa0Iaw-44">
          <mxGeometry y="78" width="320" height="26" as="geometry" />
        </mxCell>
        <mxCell id="Llu71SaY1VRgX1Pa0Iaw-48" value="+ check_password(user: User, password: string): bool" style="text;strokeColor=none;fillColor=none;align=left;verticalAlign=top;spacingLeft=4;spacingRight=4;overflow=hidden;rotatable=0;points=[[0,0.5],[1,0.5]];portConstraint=eastwest;whiteSpace=wrap;html=1;" vertex="1" parent="Llu71SaY1VRgX1Pa0Iaw-44">
          <mxGeometry y="104" width="320" height="26" as="geometry" />
        </mxCell>
        <mxCell id="Llu71SaY1VRgX1Pa0Iaw-49" value="BookingService" style="swimlane;fontStyle=1;align=center;verticalAlign=top;childLayout=stackLayout;horizontal=1;startSize=26;horizontalStack=0;resizeParent=1;resizeParentMax=0;resizeLast=0;collapsible=1;marginBottom=0;whiteSpace=wrap;html=1;" vertex="1" parent="WIyWlLk6GJQsqaUBKTNV-1">
          <mxGeometry x="-413" y="977" width="478.5" height="216" as="geometry" />
        </mxCell>
        <mxCell id="Llu71SaY1VRgX1Pa0Iaw-50" value="&lt;span style=&quot;text-align: center; text-wrap: nowrap;&quot;&gt;- bookingRepository: BookingRepository&lt;/span&gt;" style="text;strokeColor=none;fillColor=none;align=left;verticalAlign=top;spacingLeft=4;spacingRight=4;overflow=hidden;rotatable=0;points=[[0,0.5],[1,0.5]];portConstraint=eastwest;whiteSpace=wrap;html=1;" vertex="1" parent="Llu71SaY1VRgX1Pa0Iaw-49">
          <mxGeometry y="26" width="478.5" height="26" as="geometry" />
        </mxCell>
        <mxCell id="Llu71SaY1VRgX1Pa0Iaw-51" value="" style="line;strokeWidth=1;fillColor=none;align=left;verticalAlign=middle;spacingTop=-1;spacingLeft=3;spacingRight=3;rotatable=0;labelPosition=right;points=[];portConstraint=eastwest;strokeColor=inherit;" vertex="1" parent="Llu71SaY1VRgX1Pa0Iaw-49">
          <mxGeometry y="52" width="478.5" height="8" as="geometry" />
        </mxCell>
        <mxCell id="Llu71SaY1VRgX1Pa0Iaw-52" value="&lt;div style=&quot;text-wrap: nowrap;&quot;&gt;+ createBooking(clientId: string, carId: string, startDate: Date, endDate: Date): Booking&lt;/div&gt;&lt;div&gt;&lt;br&gt;&lt;/div&gt;" style="text;strokeColor=none;fillColor=none;align=left;verticalAlign=top;spacingLeft=4;spacingRight=4;overflow=hidden;rotatable=0;points=[[0,0.5],[1,0.5]];portConstraint=eastwest;whiteSpace=wrap;html=1;" vertex="1" parent="Llu71SaY1VRgX1Pa0Iaw-49">
          <mxGeometry y="60" width="478.5" height="26" as="geometry" />
        </mxCell>
        <mxCell id="Llu71SaY1VRgX1Pa0Iaw-54" value="&lt;span style=&quot;text-wrap: nowrap;&quot;&gt;+ confirmBooking(bookingId: string): void&lt;/span&gt;" style="text;strokeColor=none;fillColor=none;align=left;verticalAlign=top;spacingLeft=4;spacingRight=4;overflow=hidden;rotatable=0;points=[[0,0.5],[1,0.5]];portConstraint=eastwest;whiteSpace=wrap;html=1;" vertex="1" parent="Llu71SaY1VRgX1Pa0Iaw-49">
          <mxGeometry y="86" width="478.5" height="26" as="geometry" />
        </mxCell>
        <mxCell id="Llu71SaY1VRgX1Pa0Iaw-55" value="&lt;span style=&quot;text-wrap: nowrap;&quot;&gt;+ cancelBooking(bookingId: string): void&lt;/span&gt;" style="text;strokeColor=none;fillColor=none;align=left;verticalAlign=top;spacingLeft=4;spacingRight=4;overflow=hidden;rotatable=0;points=[[0,0.5],[1,0.5]];portConstraint=eastwest;whiteSpace=wrap;html=1;" vertex="1" parent="Llu71SaY1VRgX1Pa0Iaw-49">
          <mxGeometry y="112" width="478.5" height="26" as="geometry" />
        </mxCell>
        <mxCell id="Llu71SaY1VRgX1Pa0Iaw-56" value="&lt;span style=&quot;text-wrap: nowrap;&quot;&gt;+ gettingUserById(userId: string): void&lt;/span&gt;" style="text;strokeColor=none;fillColor=none;align=left;verticalAlign=top;spacingLeft=4;spacingRight=4;overflow=hidden;rotatable=0;points=[[0,0.5],[1,0.5]];portConstraint=eastwest;whiteSpace=wrap;html=1;" vertex="1" parent="Llu71SaY1VRgX1Pa0Iaw-49">
          <mxGeometry y="138" width="478.5" height="26" as="geometry" />
        </mxCell>
        <mxCell id="Llu71SaY1VRgX1Pa0Iaw-57" value="&lt;span style=&quot;text-wrap: nowrap;&quot;&gt;+ gettingCarById(carId: string): void&lt;/span&gt;" style="text;strokeColor=none;fillColor=none;align=left;verticalAlign=top;spacingLeft=4;spacingRight=4;overflow=hidden;rotatable=0;points=[[0,0.5],[1,0.5]];portConstraint=eastwest;whiteSpace=wrap;html=1;" vertex="1" parent="Llu71SaY1VRgX1Pa0Iaw-49">
          <mxGeometry y="164" width="478.5" height="26" as="geometry" />
        </mxCell>
        <mxCell id="Llu71SaY1VRgX1Pa0Iaw-53" value="&lt;span style=&quot;text-wrap: nowrap;&quot;&gt;+ addToHistory(userId: string, carId: string, bookingDate: Date): void&lt;/span&gt;" style="text;strokeColor=none;fillColor=none;align=left;verticalAlign=top;spacingLeft=4;spacingRight=4;overflow=hidden;rotatable=0;points=[[0,0.5],[1,0.5]];portConstraint=eastwest;whiteSpace=wrap;html=1;" vertex="1" parent="Llu71SaY1VRgX1Pa0Iaw-49">
          <mxGeometry y="190" width="478.5" height="26" as="geometry" />
        </mxCell>
        <mxCell id="Llu71SaY1VRgX1Pa0Iaw-58" value="BookingController" style="swimlane;fontStyle=1;align=center;verticalAlign=top;childLayout=stackLayout;horizontal=1;startSize=26;horizontalStack=0;resizeParent=1;resizeParentMax=0;resizeLast=0;collapsible=1;marginBottom=0;whiteSpace=wrap;html=1;" vertex="1" parent="WIyWlLk6GJQsqaUBKTNV-1">
          <mxGeometry x="-398.75" y="790" width="450" height="126" as="geometry" />
        </mxCell>
        <mxCell id="Llu71SaY1VRgX1Pa0Iaw-59" value="&lt;span style=&quot;text-align: center; text-wrap: nowrap;&quot;&gt;- bookingService: BookingService&lt;/span&gt;" style="text;strokeColor=none;fillColor=none;align=left;verticalAlign=top;spacingLeft=4;spacingRight=4;overflow=hidden;rotatable=0;points=[[0,0.5],[1,0.5]];portConstraint=eastwest;whiteSpace=wrap;html=1;" vertex="1" parent="Llu71SaY1VRgX1Pa0Iaw-58">
          <mxGeometry y="26" width="450" height="26" as="geometry" />
        </mxCell>
        <mxCell id="Llu71SaY1VRgX1Pa0Iaw-60" value="" style="line;strokeWidth=1;fillColor=none;align=left;verticalAlign=middle;spacingTop=-1;spacingLeft=3;spacingRight=3;rotatable=0;labelPosition=right;points=[];portConstraint=eastwest;strokeColor=inherit;" vertex="1" parent="Llu71SaY1VRgX1Pa0Iaw-58">
          <mxGeometry y="52" width="450" height="8" as="geometry" />
        </mxCell>
        <mxCell id="Llu71SaY1VRgX1Pa0Iaw-61" value="+ requestBooking(clientId: string, carId: string, startDate: Date, endDate: Date)" style="text;strokeColor=none;fillColor=none;align=left;verticalAlign=top;spacingLeft=4;spacingRight=4;overflow=hidden;rotatable=0;points=[[0,0.5],[1,0.5]];portConstraint=eastwest;whiteSpace=wrap;html=1;" vertex="1" parent="Llu71SaY1VRgX1Pa0Iaw-58">
          <mxGeometry y="60" width="450" height="26" as="geometry" />
        </mxCell>
        <mxCell id="Llu71SaY1VRgX1Pa0Iaw-62" value="&lt;span style=&quot;color: rgb(0, 0, 0); font-family: Helvetica; font-size: 12px; font-style: normal; font-variant-ligatures: normal; font-variant-caps: normal; font-weight: 400; letter-spacing: normal; orphans: 2; text-align: left; text-indent: 0px; text-transform: none; widows: 2; word-spacing: 0px; -webkit-text-stroke-width: 0px; white-space: normal; background-color: rgb(251, 251, 251); text-decoration-thickness: initial; text-decoration-style: initial; text-decoration-color: initial; display: inline !important; float: none;&quot;&gt;+ confirmBooking(clientId: string, bookingId: string): void&lt;/span&gt;" style="text;whiteSpace=wrap;html=1;" vertex="1" parent="Llu71SaY1VRgX1Pa0Iaw-58">
          <mxGeometry y="86" width="450" height="40" as="geometry" />
        </mxCell>
        <mxCell id="Llu71SaY1VRgX1Pa0Iaw-63" value="&lt;span style=&quot;font-weight: 700;&quot;&gt;Car&lt;/span&gt;" style="swimlane;fontStyle=0;childLayout=stackLayout;horizontal=1;startSize=26;fillColor=none;horizontalStack=0;resizeParent=1;resizeParentMax=0;resizeLast=0;collapsible=1;marginBottom=0;whiteSpace=wrap;html=1;" vertex="1" parent="WIyWlLk6GJQsqaUBKTNV-1">
          <mxGeometry x="760" y="840" width="140" height="144" as="geometry" />
        </mxCell>
        <mxCell id="Llu71SaY1VRgX1Pa0Iaw-64" value="&lt;span style=&quot;text-wrap: nowrap;&quot;&gt;- id: string&lt;/span&gt;" style="text;strokeColor=none;fillColor=none;align=left;verticalAlign=top;spacingLeft=4;spacingRight=4;overflow=hidden;rotatable=0;points=[[0,0.5],[1,0.5]];portConstraint=eastwest;whiteSpace=wrap;html=1;" vertex="1" parent="Llu71SaY1VRgX1Pa0Iaw-63">
          <mxGeometry y="26" width="140" height="26" as="geometry" />
        </mxCell>
        <mxCell id="Llu71SaY1VRgX1Pa0Iaw-65" value="&lt;div style=&quot;text-wrap: nowrap;&quot;&gt;&lt;span style=&quot;background-color: initial;&quot;&gt;- model: string&lt;/span&gt;&lt;/div&gt;&lt;div&gt;&lt;span style=&quot;background-color: initial;&quot;&gt;&lt;br&gt;&lt;/span&gt;&lt;/div&gt;" style="text;strokeColor=none;fillColor=none;align=left;verticalAlign=top;spacingLeft=4;spacingRight=4;overflow=hidden;rotatable=0;points=[[0,0.5],[1,0.5]];portConstraint=eastwest;whiteSpace=wrap;html=1;" vertex="1" parent="Llu71SaY1VRgX1Pa0Iaw-63">
          <mxGeometry y="52" width="140" height="26" as="geometry" />
        </mxCell>
        <mxCell id="Llu71SaY1VRgX1Pa0Iaw-66" value="&lt;span style=&quot;text-wrap: nowrap;&quot;&gt;- year: int&lt;/span&gt;" style="text;strokeColor=none;fillColor=none;align=left;verticalAlign=top;spacingLeft=4;spacingRight=4;overflow=hidden;rotatable=0;points=[[0,0.5],[1,0.5]];portConstraint=eastwest;whiteSpace=wrap;html=1;" vertex="1" parent="Llu71SaY1VRgX1Pa0Iaw-63">
          <mxGeometry y="78" width="140" height="26" as="geometry" />
        </mxCell>
        <mxCell id="Llu71SaY1VRgX1Pa0Iaw-67" value="&lt;span style=&quot;color: rgb(0, 0, 0); font-family: Helvetica; font-size: 12px; font-style: normal; font-variant-ligatures: normal; font-variant-caps: normal; font-weight: 400; letter-spacing: normal; orphans: 2; text-align: left; text-indent: 0px; text-transform: none; widows: 2; word-spacing: 0px; -webkit-text-stroke-width: 0px; white-space: nowrap; background-color: rgb(251, 251, 251); text-decoration-thickness: initial; text-decoration-style: initial; text-decoration-color: initial; display: inline !important; float: none;&quot;&gt;- status: bool&lt;/span&gt;" style="text;whiteSpace=wrap;html=1;" vertex="1" parent="Llu71SaY1VRgX1Pa0Iaw-63">
          <mxGeometry y="104" width="140" height="40" as="geometry" />
        </mxCell>
        <mxCell id="Llu71SaY1VRgX1Pa0Iaw-68" value="AuthService" style="swimlane;fontStyle=1;align=center;verticalAlign=top;childLayout=stackLayout;horizontal=1;startSize=26;horizontalStack=0;resizeParent=1;resizeParentMax=0;resizeLast=0;collapsible=1;marginBottom=0;whiteSpace=wrap;html=1;" vertex="1" parent="WIyWlLk6GJQsqaUBKTNV-1">
          <mxGeometry x="780" y="230" width="330" height="220" as="geometry" />
        </mxCell>
        <mxCell id="Llu71SaY1VRgX1Pa0Iaw-69" value="&lt;span style=&quot;text-align: center; text-wrap: nowrap;&quot;&gt;- users: Map&amp;lt;string, string&amp;gt;&lt;/span&gt;" style="text;strokeColor=none;fillColor=none;align=left;verticalAlign=top;spacingLeft=4;spacingRight=4;overflow=hidden;rotatable=0;points=[[0,0.5],[1,0.5]];portConstraint=eastwest;whiteSpace=wrap;html=1;" vertex="1" parent="Llu71SaY1VRgX1Pa0Iaw-68">
          <mxGeometry y="26" width="330" height="26" as="geometry" />
        </mxCell>
        <mxCell id="Llu71SaY1VRgX1Pa0Iaw-72" value="&lt;span style=&quot;color: rgb(0, 0, 0); font-family: Helvetica; font-size: 12px; font-style: normal; font-variant-ligatures: normal; font-variant-caps: normal; font-weight: 400; letter-spacing: normal; orphans: 2; text-align: center; text-indent: 0px; text-transform: none; widows: 2; word-spacing: 0px; -webkit-text-stroke-width: 0px; white-space: nowrap; background-color: rgb(251, 251, 251); text-decoration-thickness: initial; text-decoration-style: initial; text-decoration-color: initial; display: inline !important; float: none;&quot;&gt;- tokens: Map&amp;lt;string, string&amp;gt;&lt;/span&gt;" style="text;whiteSpace=wrap;html=1;" vertex="1" parent="Llu71SaY1VRgX1Pa0Iaw-68">
          <mxGeometry y="52" width="330" height="40" as="geometry" />
        </mxCell>
        <mxCell id="Llu71SaY1VRgX1Pa0Iaw-70" value="" style="line;strokeWidth=1;fillColor=none;align=left;verticalAlign=middle;spacingTop=-1;spacingLeft=3;spacingRight=3;rotatable=0;labelPosition=right;points=[];portConstraint=eastwest;strokeColor=inherit;" vertex="1" parent="Llu71SaY1VRgX1Pa0Iaw-68">
          <mxGeometry y="92" width="330" height="8" as="geometry" />
        </mxCell>
        <mxCell id="Llu71SaY1VRgX1Pa0Iaw-71" value="&lt;div&gt;+ authenticate(email: string, password: string): string&lt;/div&gt;" style="text;strokeColor=none;fillColor=none;align=left;verticalAlign=top;spacingLeft=4;spacingRight=4;overflow=hidden;rotatable=0;points=[[0,0.5],[1,0.5]];portConstraint=eastwest;whiteSpace=wrap;html=1;" vertex="1" parent="Llu71SaY1VRgX1Pa0Iaw-68">
          <mxGeometry y="100" width="330" height="26" as="geometry" />
        </mxCell>
        <mxCell id="Llu71SaY1VRgX1Pa0Iaw-73" value="&lt;div style=&quot;color: rgb(0, 0, 0); font-family: Helvetica; font-size: 12px; font-style: normal; font-variant-ligatures: normal; font-variant-caps: normal; font-weight: 400; letter-spacing: normal; orphans: 2; text-align: left; text-indent: 0px; text-transform: none; widows: 2; word-spacing: 0px; -webkit-text-stroke-width: 0px; white-space: normal; background-color: rgb(251, 251, 251); text-decoration-thickness: initial; text-decoration-style: initial; text-decoration-color: initial;&quot;&gt;+ authorize(token: string, resource: string): bool&lt;/div&gt;&lt;br class=&quot;Apple-interchange-newline&quot;&gt;" style="text;whiteSpace=wrap;html=1;" vertex="1" parent="Llu71SaY1VRgX1Pa0Iaw-68">
          <mxGeometry y="126" width="330" height="20" as="geometry" />
        </mxCell>
        <mxCell id="Llu71SaY1VRgX1Pa0Iaw-74" value="&lt;div style=&quot;color: rgb(0, 0, 0); font-family: Helvetica; font-size: 12px; font-style: normal; font-variant-ligatures: normal; font-variant-caps: normal; font-weight: 400; letter-spacing: normal; orphans: 2; text-align: left; text-indent: 0px; text-transform: none; widows: 2; word-spacing: 0px; -webkit-text-stroke-width: 0px; white-space: normal; background-color: rgb(251, 251, 251); text-decoration-thickness: initial; text-decoration-style: initial; text-decoration-color: initial;&quot;&gt;+&amp;nbsp;&lt;span style=&quot;background-color: initial;&quot;&gt;getUserByEmail(email: string): User&lt;/span&gt;&lt;/div&gt;&lt;br class=&quot;Apple-interchange-newline&quot;&gt;" style="text;whiteSpace=wrap;html=1;" vertex="1" parent="Llu71SaY1VRgX1Pa0Iaw-68">
          <mxGeometry y="146" width="330" height="24" as="geometry" />
        </mxCell>
        <mxCell id="Llu71SaY1VRgX1Pa0Iaw-75" value="&lt;div style=&quot;color: rgb(0, 0, 0); font-family: Helvetica; font-size: 12px; font-style: normal; font-variant-ligatures: normal; font-variant-caps: normal; font-weight: 400; letter-spacing: normal; orphans: 2; text-align: left; text-indent: 0px; text-transform: none; widows: 2; word-spacing: 0px; -webkit-text-stroke-width: 0px; white-space: normal; background-color: rgb(251, 251, 251); text-decoration-thickness: initial; text-decoration-style: initial; text-decoration-color: initial;&quot;&gt;&lt;span style=&quot;background-color: initial;&quot;&gt;+ getUserByToken(token: string): User&lt;br&gt;&lt;/span&gt;&lt;/div&gt;&lt;br class=&quot;Apple-interchange-newline&quot;&gt;" style="text;whiteSpace=wrap;html=1;" vertex="1" parent="Llu71SaY1VRgX1Pa0Iaw-68">
          <mxGeometry y="170" width="330" height="20" as="geometry" />
        </mxCell>
        <mxCell id="Llu71SaY1VRgX1Pa0Iaw-76" value="&lt;span style=&quot;color: rgb(0, 0, 0); font-family: Helvetica; font-size: 12px; font-style: normal; font-variant-ligatures: normal; font-variant-caps: normal; font-weight: 400; letter-spacing: normal; orphans: 2; text-align: left; text-indent: 0px; text-transform: none; widows: 2; word-spacing: 0px; -webkit-text-stroke-width: 0px; white-space: normal; background-color: rgb(251, 251, 251); text-decoration-thickness: initial; text-decoration-style: initial; text-decoration-color: initial; display: inline !important; float: none;&quot;&gt;+ generateToken(user: User): string&lt;/span&gt;" style="text;whiteSpace=wrap;html=1;" vertex="1" parent="Llu71SaY1VRgX1Pa0Iaw-68">
          <mxGeometry y="190" width="330" height="30" as="geometry" />
        </mxCell>
        <mxCell id="Llu71SaY1VRgX1Pa0Iaw-82" value="" style="endArrow=classic;startArrow=classic;html=1;rounded=0;entryX=-0.004;entryY=0.066;entryDx=0;entryDy=0;exitX=1.013;exitY=0.072;exitDx=0;exitDy=0;entryPerimeter=0;exitPerimeter=0;" edge="1" parent="WIyWlLk6GJQsqaUBKTNV-1" source="Llu71SaY1VRgX1Pa0Iaw-17" target="Llu71SaY1VRgX1Pa0Iaw-23">
          <mxGeometry width="50" height="50" relative="1" as="geometry">
            <mxPoint x="650" y="1097.5" as="sourcePoint" />
            <mxPoint x="791" y="1054.5" as="targetPoint" />
            <Array as="points">
              <mxPoint x="650" y="993" />
              <mxPoint x="650" y="1023" />
            </Array>
          </mxGeometry>
        </mxCell>
      </root>
    </mxGraphModel>
  </diagram>
</mxfile>
